<svg xmlns="http://www.w3.org/2000/svg" width="128" height="116" viewBox="0 0 128 116">
  <path id="cardiology" d="M64,116h-.018c-.1,0-.215,0-.343-.014l-.113-.009c-.124-.013-.225-.026-.318-.04l-.053-.009-.053-.009c-.109-.02-.192-.038-.269-.057l-.035-.009-.092-.024c-.1-.026-.211-.058-.326-.1l-.032-.013-.043-.016c-.091-.032-.184-.069-.284-.113l-.043-.018-.043-.018c-.12-.054-.232-.109-.341-.17a.107.107,0,0,1-.024-.014c-.111-.061-.225-.13-.339-.206l-.022-.014c-.122-.082-.234-.164-.34-.25l-.007-.005-.011-.009a4.8,4.8,0,0,1-.368-.329l-.007-.007-.008-.009c-.091-.091-.183-.192-.281-.307l-.069-.08-.006-.008-.009-.012c-4.8-5.967-12.193-12.45-20.016-19.314l-.024-.021c-3.428-3.007-6.972-6.117-10.45-9.314a5,5,0,1,1,6.767-7.362c3.43,3.154,7.068,6.344,10.278,9.158,6.388,5.605,12.421,10.9,17.339,16.137,4.936-5.255,10.96-10.541,17.338-16.136l.114-.1a5,5,0,1,1,6.6,7.516l-.115.1C80.1,101.672,72.7,108.162,67.9,114.134l-.017.02-.061.071-.007.009c-.091.108-.186.211-.28.306l-.007.008-.01.009c-.111.11-.235.22-.367.328l-.011.01,0,0c-.115.092-.227.174-.342.251l-.006,0-.019.012c-.114.076-.223.142-.333.2l-.01.006-.02.011c-.1.057-.216.114-.338.168l-.09.039c-.089.039-.183.076-.279.111l-.033.012-.047.017c-.107.036-.218.067-.323.1l-.129.032c-.094.023-.188.041-.267.057l-.047.008-.062.01c-.11.019-.221.031-.317.04h-.008l-.105.008c-.109.007-.225.014-.343.014H64ZM57.251,81l-.121,0a5.026,5.026,0,0,1-4.446-2.961L42.54,55.3,37.574,65.448a5,5,0,0,1-4.491,2.8H5a5,5,0,1,1,0-10H6.268C2.05,50.791,0,43.616,0,36.319,0,25.7,3.487,16.556,10.083,9.876A33.925,33.925,0,0,1,34.5,0C51.034,0,59.583,8.508,63.842,15.645c.058.1.11.183.158.265.024-.042.049-.084.073-.125l.084-.14C68.417,8.508,76.966,0,93.5,0a33.925,33.925,0,0,1,24.417,9.876C124.513,16.555,128,25.7,128,36.319c0,17.5-12.464,32.176-21.839,41.692a5,5,0,1,1-7.123-7.019C111.975,57.862,118,46.844,118,36.319,118,20.823,107.925,10,93.5,10c-9.381,0-16.307,3.529-20.586,10.489A29.036,29.036,0,0,0,68.983,31.82a5,5,0,0,1-9.968-.022,28.963,28.963,0,0,0-3.929-11.309C50.806,13.529,43.88,10,34.5,10,20.075,10,10,20.823,10,36.319c0,6.995,2.648,14.168,8.1,21.931H29.964l8.3-16.948a5.018,5.018,0,0,1,4.474-2.8h.106a5.018,5.018,0,0,1,4.478,2.962l10.216,22.9,6.505-12.867A4.984,4.984,0,0,1,68.46,48.75h.04a4.988,4.988,0,0,1,4.424,2.671l3.594,6.828H87.75a5,5,0,1,1,0,10H73.5a4.99,4.99,0,0,1-4.425-2.67l-.486-.925-6.877,13.6A4.973,4.973,0,0,1,57.251,81Z" fill="#fff"/>
</svg>
