<svg id="Layer_1" enable-background="new 0 0 512.057 512.057" height="512" viewBox="0 0 512.057 512.057" width="512" xmlns="http://www.w3.org/2000/svg"><path d="m339.94 464.088h-296.641c-13.729 0-24.899 11.169-24.899 24.898v15.571c0 4.142 3.358 7.5 7.5 7.5h331.438c4.142 0 7.5-3.358 7.5-7.5v-15.571c.001-13.729-11.168-24.898-24.898-24.898z" fill="#f1f4f6"/><path d="m339.94 464.088h-15.586c.316 1.584.484 3.221.484 4.898v.286c0 12.584-10.201 22.785-22.785 22.785h-283.652v12.5c0 4.142 3.358 7.5 7.5 7.5h331.438c4.142 0 7.5-3.358 7.5-7.5v-15.571c0-13.729-11.169-24.898-24.899-24.898z" fill="#dfeaef"/><path d="m234.63 25h40.299v39.377h-40.299z" fill="#c6d0da" transform="matrix(-1 0 0 -1 509.559 89.377)"/><path d="m218.187 0h73.184c1.498 0 2.713 1.215 2.713 2.713v11.62c0 5.892-4.776 10.668-10.668 10.668h-57.275c-5.892 0-10.668-4.776-10.668-10.668v-11.62c.001-1.498 1.216-2.713 2.714-2.713z" fill="#dae4ea"/><path d="m294.084 367.507h-78.61v29.052h75.144c1.914 0 3.465-1.552 3.465-3.465v-25.587z" fill="#f1f4f6"/><path d="m198.667 243.408h112.224c1.815 0 3.286-1.471 3.286-3.286v-19.796c0-1.815-1.471-3.286-3.286-3.286h-112.224c-1.815 0-3.286 1.471-3.286 3.286v19.796c0 1.815 1.472 3.286 3.286 3.286z" fill="#c6d0da"/><path d="m205.649 303.029h35.909c.707 0 1.28-.573 1.28-1.28v-58.342h-38.469v58.342c0 .707.573 1.28 1.28 1.28z" fill="#b9c1cb"/><path d="m278 295.029h25.909c.707 0 1.28-.573 1.28-1.28v-50.342h-28.469v50.342c0 .707.573 1.28 1.28 1.28z" fill="#b9c1cb"/><circle cx="215.474" cy="120.462" fill="#c6d0da" r="37.566"/><circle cx="215.474" cy="120.462" fill="#b9c1cb" r="12.566"/><path d="m215.474 396.559h58.539v67.529h-58.539z" fill="#c6d0da"/><path d="m215.474 67.09v15.807c20.747 0 37.566 16.819 37.566 37.566s-16.819 37.566-37.566 37.566v59.012h78.61v-149.951c0-1.498-1.215-2.713-2.713-2.713h-73.184c-1.498 0-2.713 1.214-2.713 2.713z" fill="#f1f4f6"/><path d="m254.084 64.377v106.006c0 14.722-11.935 26.657-26.657 26.657h-11.953v20h78.61v-149.95c0-1.498-1.215-2.713-2.713-2.713z" fill="#dfeaef"/><path d="m178.056 123.811c-78.668 15.728-137.945 85.167-137.945 168.462 0 87.999 66.162 160.54 151.452 170.614l.001-.009c12.763 1.507 21.937 1.158 23.91 1.206v-96.578h-42.37c-41.55 0-75.233-33.683-75.233-75.233 0-41.55 33.683-75.234 75.233-75.234h42.37v-59.012c-19.618.001-35.724-15.038-37.418-34.216z" fill="#f1f4f6"/><path d="m178.056 123.811c-8.512 1.702-16.796 4.033-24.804 6.942.062.046.125.091.187.137 13.687 9.929 22.035 25.602 22.035 42.511 0 13.055-10.584 23.639-23.639 23.639h-18.731c-41.55 0-75.233 33.683-75.233 75.233 0 37.427 27.331 68.471 63.123 74.263-14.252-13.69-23.123-32.941-23.123-54.263 0-41.55 33.683-75.234 75.234-75.234h42.37v-59.012c-19.619.001-35.725-15.038-37.419-34.216z" fill="#dfeaef"/><path d="m175.474 421.888c0 12.627-10.985 22.488-23.529 21.035-.127-.015-.254-.03-.382-.045l-.001.009c-12.361-1.46-24.32-4.232-35.734-8.173 22.12 14.951 47.909 24.887 75.734 28.173l.001-.009c12.763 1.507 21.937 1.158 23.91 1.206v-96.578h-40v54.382z" fill="#dfeaef"/><path d="m471.863 185.012c-15.124-15.596-36.276-24.144-58.014-23.444-19.981.64-38.733 8.966-52.802 23.443-14.063 14.472-21.856 33.453-21.945 53.448-.078 17.554 5.584 34.125 16.374 47.921 2.573 3.29 4.042 7.109 4.25 11.046l1.302 24.678c.134 2.535 1.541 4.831 3.74 6.1 2.197 1.269 4.888 1.341 7.153.188l22.012-11.207c3.503-1.784 7.548-2.422 11.703-1.842 4.534.632 9.173.862 13.79.684 19.042-.733 37.108-8.526 50.873-21.943 13.771-13.424 22.013-31.289 23.207-50.302 1.365-21.758-6.523-43.179-21.643-58.77z" fill="#f9c6da"/><path d="m471.863 185.012c-11.459-11.817-26.383-19.577-42.397-22.344.811.767 1.617 1.54 2.397 2.344 15.12 15.591 23.008 37.012 21.642 58.771-1.194 19.014-9.436 36.878-23.207 50.302-13.764 13.417-31.831 21.21-50.873 21.943-4.616.178-9.256-.052-13.79-.684-2.095-.292-4.161-.273-6.145.044.111.675.199 1.354.235 2.038l1.302 24.678c.134 2.535 1.541 4.831 3.74 6.1 2.197 1.269 4.888 1.341 7.153.188l22.012-11.207c3.503-1.784 7.548-2.422 11.703-1.842 4.534.632 9.173.862 13.79.684 19.042-.733 37.108-8.526 50.873-21.943 13.771-13.424 22.013-31.289 23.207-50.302 1.366-21.758-6.522-43.179-21.642-58.77z" fill="#efa5c3"/><circle cx="438.185" cy="221.806" fill="#f6e781" r="12.687"/><circle cx="393.03" cy="254.27" fill="#f6e781" r="12.687"/><circle cx="400.53" cy="209.118" fill="#f1f4f6" r="7.5"/><circle cx="454.679" cy="254.27" fill="#dfeaef" r="7.5"/><circle cx="423.882" cy="278.408" fill="#f1f4f6" r="7.5"/><path d="m423.881 285.908c4.142 0 7.5-3.358 7.5-7.5 0-1.539-.465-2.969-1.26-4.159-3.616 3.504-7.531 6.611-11.677 9.315 1.368 1.441 3.295 2.344 5.437 2.344z" fill="#dfeaef"/><g fill="#f1f4f6"><path d="m279.014 437.823h-68.54c-4.142 0-7.5-3.358-7.5-7.5s3.358-7.5 7.5-7.5h68.54c4.142 0 7.5 3.358 7.5 7.5s-3.358 7.5-7.5 7.5z"/><path d="m247.279 275.908h-47.352c-4.142 0-7.5-3.358-7.5-7.5s3.358-7.5 7.5-7.5h47.352c4.142 0 7.5 3.358 7.5 7.5s-3.357 7.5-7.5 7.5z"/><path d="m309.631 275.908h-37.352c-4.142 0-7.5-3.358-7.5-7.5s3.358-7.5 7.5-7.5h37.352c4.142 0 7.5 3.358 7.5 7.5s-3.358 7.5-7.5 7.5z"/></g><path d="m168.459 367.507h172.64c1.121 0 2.029-.909 2.029-2.029v-26.257c0-1.121-.909-2.029-2.029-2.029h-172.64c-1.121 0-2.029.909-2.029 2.029v26.257c0 1.12.908 2.029 2.029 2.029z" fill="#8eaadf"/><path d="m303.128 337.191c.001.052.001.105.001.158 0 8.371-6.786 15.158-15.158 15.158h-121.541v12.971c0 1.121.909 2.029 2.029 2.029h172.64c1.121 0 2.029-.909 2.029-2.029v-26.256c0-1.121-.909-2.029-2.029-2.029h-37.971z" fill="#698ed5"/></svg>