<?xml version="1.0" encoding="iso-8859-1"?>
<!-- Generator: Adobe Illustrator 19.0.0, SVG Export Plug-In . SVG Version: 6.00 Build 0)  -->
<svg version="1.1" id="Capa_1" xmlns="http://www.w3.org/2000/svg" xmlns:xlink="http://www.w3.org/1999/xlink" x="0px" y="0px"
	 viewBox="0 0 491.52 491.52" style="enable-background:new 0 0 491.52 491.52;" xml:space="preserve">
<circle style="fill:#E05B49;" cx="245.76" cy="245.76" r="245.76"/>
<path style="opacity:0.1;enable-background:new    ;" d="M471.572,342.823l-88.74-88.74c-0.034-0.036-0.068-0.069-0.103-0.103
	l-0.072-0.071l-0.02,0.009c-0.607-0.545-1.392-0.901-2.272-0.901h-37.018c-0.039,0-0.072,0.021-0.111,0.023l-92.015-92.016
	l-0.021,0.073c-5.794-6.322-12.303-9.968-19.213-9.968h-62.874c-10.547,0-20.224,8.294-27.699,22.067h-3.328
	c-18.278,0-33.126,32.461-33.126,72.55c0,24.627,5.581,46.387,14.182,59.494h-0.358v30.208c0,1.251,0.505,2.375,1.276,3.254
	l-0.018,0.023l0.1,0.1c0.07,0.076,0.139,0.143,0.213,0.214l151.135,151.135C361.57,480.801,437.162,422.768,471.572,342.823z"/>
<path style="fill:#3A556A;" d="M202.521,314.787h-62.858c0.58,1.186,1.132,2.435,1.739,3.55
	c7.502,13.76,17.165,22.054,27.715,22.054h62.891C220.595,340.391,210.245,330.623,202.521,314.787z"/>
<path style="fill:#64798A;" d="M383.783,266.192h-2.563v-9.734c0-0.483-0.393-0.876-0.877-0.876h-36.994
	c-0.484,0-0.877,0.393-0.877,0.876v9.734h-2.563v-9.734c0-1.896,1.543-3.439,3.44-3.439h36.994c1.897,0,3.44,1.543,3.44,3.439
	V266.192z"/>
<polygon style="fill:#D5D6DB;" points="379.247,279.645 259.982,279.645 259.982,262.335 386.56,262.335 "/>
<ellipse style="fill:#64798A;" cx="231.987" cy="245.76" rx="43.203" ry="94.633"/>
<ellipse style="fill:#3A556A;" cx="231.987" cy="245.76" rx="27.976" ry="67.625"/>
<ellipse style="fill:#FFFFFF;" cx="231.987" cy="245.76" rx="22.973" ry="58.532"/>
<path style="fill:#E1E6E9;" d="M141.403,173.182h-3.309c-18.299,0-33.134,32.494-33.134,72.578s14.834,72.578,33.134,72.578h3.309
	c-9.464-17.359-15.487-43.423-15.487-72.578C125.916,216.606,131.938,190.541,141.403,173.182z"/>
<path style="fill:#EBF0F3;" d="M338.341,262.335H209.976c0.726,6.274,1.853,12.105,3.306,17.309h117.745L338.341,262.335z"/>
<g>
	<path style="fill:#64798A;" d="M380.251,262.335c0,3.246-8.195,5.877-18.303,5.877c-10.108,0-18.303-2.631-18.303-5.877"/>
	<rect x="272.333" y="279.644" style="fill:#64798A;" width="101.161" height="49.674"/>
</g>
<rect x="266.496" y="329.318" style="fill:#2F4859;" width="112.896" height="5.064"/>
<g>
	<path style="fill:#3A556A;" d="M142.51,340.391h-18.794c-2.721,0-4.927-2.206-4.927-4.927v-30.206h23.72V340.391z"/>
	<path style="fill:#3A556A;" d="M306.516,334.381c0,3.319-2.691,6.01-6.01,6.01c-3.319,0-6.01-2.691-6.01-6.01"/>
</g>
<path style="fill:#64798A;" d="M289.952,334.381c0,3.319-2.691,6.01-6.01,6.01c-3.32,0-6.01-2.691-6.01-6.01"/>
<path style="fill:#3A556A;" d="M371.125,334.381c0,3.319-2.691,6.01-6.01,6.01s-6.01-2.691-6.01-6.01"/>
<g>
	<path style="fill:#64798A;" d="M354.56,334.381c0,3.319-2.691,6.01-6.01,6.01c-3.319,0-6.01-2.691-6.01-6.01"/>
	<path style="fill:#64798A;" d="M197.53,340.391h-58.222v-25.604h63.149v20.677C202.457,338.186,200.251,340.391,197.53,340.391z"/>
</g>
<path style="fill:#EBF0F3;" d="M188.807,245.76c0-52.264,19.341-94.631,43.201-94.631h-62.891c-10.55,0-20.213,8.294-27.714,22.054
	c-9.465,17.359-15.488,43.424-15.488,72.578c0,27.281,5.315,51.759,13.748,69.027h62.858
	C194.1,297.519,188.807,273.021,188.807,245.76z"/>
<g>
</g>
<g>
</g>
<g>
</g>
<g>
</g>
<g>
</g>
<g>
</g>
<g>
</g>
<g>
</g>
<g>
</g>
<g>
</g>
<g>
</g>
<g>
</g>
<g>
</g>
<g>
</g>
<g>
</g>
</svg>
